<svg xmlns="http://www.w3.org/2000/svg" width="30" height="30" viewBox="0 0 30 30">
    <g fill="none" fill-rule="evenodd">
        <path stroke="#000" stroke-opacity=".008" stroke-width="0" d="M0 0h30v30H0z"/>
        <path fill="#3E4544" d="M29.91 8.816a10.932 10.932 0 0 0-.697-3.642 7.268 7.268 0 0 0-1.73-2.656 7.268 7.268 0 0 0-2.657-1.73A10.931 10.931 0 0 0 21.184.09C19.584.017 19.074 0 15 0s-4.585.017-6.184.09a10.931 10.931 0 0 0-3.642.697 7.268 7.268 0 0 0-2.656 1.73 7.268 7.268 0 0 0-1.73 2.657A10.931 10.931 0 0 0 .09 8.816C.017 10.416 0 10.926 0 15s.017 4.585.09 6.184c.025 1.254.258 2.468.697 3.642a7.268 7.268 0 0 0 1.73 2.656 7.266 7.266 0 0 0 2.657 1.73c1.174.44 2.388.673 3.642.698 1.6.073 2.11.09 6.184.09s4.585-.017 6.184-.09a10.931 10.931 0 0 0 3.642-.697c2.109-.816 3.57-2.278 4.387-4.387.44-1.174.672-2.388.697-3.641.073-1.6.09-2.111.09-6.185s-.017-4.585-.09-6.184zm-2.7 12.245a8.236 8.236 0 0 1-.517 2.786c-.528 1.37-1.477 2.318-2.846 2.846a8.237 8.237 0 0 1-2.786.517c-1.581.072-2.056.087-6.061.087s-4.48-.015-6.061-.087a8.237 8.237 0 0 1-2.786-.517 4.59 4.59 0 0 1-1.724-1.122 4.59 4.59 0 0 1-1.122-1.724 8.237 8.237 0 0 1-.517-2.786c-.072-1.581-.087-2.056-.087-6.061s.015-4.48.087-6.061a8.237 8.237 0 0 1 .517-2.786A4.59 4.59 0 0 1 4.429 4.43a4.59 4.59 0 0 1 1.724-1.122A8.237 8.237 0 0 1 8.94 2.79c1.581-.072 2.056-.087 6.061-.087s4.48.015 6.061.087a8.237 8.237 0 0 1 2.786.517 4.59 4.59 0 0 1 1.724 1.122 4.59 4.59 0 0 1 1.122 1.724c.333.899.506 1.827.517 2.786.072 1.581.087 2.056.087 6.061s-.015 4.48-.087 6.061zM15 7.297c-2.127 0-3.943.752-5.447 2.256C8.05 11.057 7.297 12.873 7.297 15c0 2.127.752 3.943 2.256 5.447 1.504 1.504 3.32 2.256 5.447 2.256 2.127 0 3.943-.752 5.447-2.256 1.504-1.504 2.256-3.32 2.256-5.447 0-2.127-.752-3.943-2.256-5.447C18.943 8.05 17.127 7.297 15 7.297zM15 20c-3.333 0-5-1.667-5-5s1.667-5 5-5 5 1.667 5 5-1.667 5-5 5zm9.807-13.007c0 1.2-.6 1.8-1.8 1.8-1.2 0-1.8-.6-1.8-1.8 0-1.2.6-1.8 1.8-1.8 1.2 0 1.8.6 1.8 1.8z"/>
    </g>
</svg>
