<svg xmlns="http://www.w3.org/2000/svg" xmlns:xlink="http://www.w3.org/1999/xlink" width="228" height="44" viewBox="0 0 228 44">
    <defs>
        <path id="a" d="M0 0h228v44H0z"/>
    </defs>
    <g fill="none" fill-rule="evenodd">
        <mask id="b" fill="#fff">
            <use xlink:href="#a"/>
        </mask>
        <path fill="#3E4544" d="M228 .9h-4.131c0 6.078 1.993 8.828 4.131 11.68V.9zm-4.131 13.012v29.187H228V23.423c0-3.992-1.508-6.003-3.417-8.549-.236-.315-.475-.636-.714-.962zM64.339.901h-4.13c0 6.077 1.993 8.827 4.13 11.679V.9zm-4.13 13.011v29.187h4.13V23.423c0-3.992-1.507-6.003-3.416-8.549-.236-.315-.475-.636-.714-.962zm121.567 13.666l-8.263-21.134-8.797 21.134h17.06zm.536 1.386h-18.208l-5.891 14.135h-2.831L174.126.901h1.53l16.83 42.198h-4.666l-5.508-14.135zm-60.05-16.769c0-6.652-3.367-10.532-13.389-10.532-1.683 0-2.983.07-4.36.208V22.52c1.147.138 2.371.138 3.366.138 10.328 0 14.383-4.365 14.383-10.463zM124.71 43.1l-13.083-19.332c-.994.07-2.065.139-3.136.139-1.301 0-2.601-.07-3.979-.139v19.332h-4.131V.97c2.754-.416 6.35-.554 8.645-.554 9.64 0 17.826 3.118 17.826 11.64 0 5.613-4.514 9.494-11.093 11.018L129.453 43.1h-4.743zM0 40.26l1.53-2.01c3.29 2.702 7.804 4.019 12.088 4.019 6.426 0 10.71-3.742 10.71-9.008 0-4.365-3.365-7.137-8.874-9.701l-4.896-2.287C4.973 18.64 1.53 14.898 1.53 10.324 1.53 4.434 6.427 0 15.378 0c5.126 0 9.41 1.247 11.858 2.91l-1.148 1.871c-2.371-1.87-6.044-3.187-10.71-3.187-5.738 0-10.481 2.563-10.481 7.552 0 4.435 2.983 6.445 8.032 8.87l5.356 2.564c6.503 3.118 9.64 6.166 9.64 11.502 0 6.86-5.968 11.918-14.919 11.918C7.192 44 2.984 42.337 0 40.258z" mask="url(#b)"/>
    </g>
</svg>
