<svg xmlns="http://www.w3.org/2000/svg" viewBox="0 0 851 299" xmlns:xlink="http://www.w3.org/1999/xlink">
		<defs>
				<polygon id="a" points="0 .048 850.394 .048 850.394 163.128 0 163.128"/>
		</defs>
		<g fill="none" fill-rule="evenodd" transform="translate(0 -1)">
				<g transform="translate(0 .952)">
						<path fill="#fff"
									d="M850.3936,3.3867 L834.9856,3.3867 C834.9856,25.9117 842.4186,36.1017 850.3936,46.6727 L850.3936,3.3867 Z M834.9856,51.6107 L834.9856,159.7897 L850.3936,159.7897 L850.3936,86.8627 C850.3936,72.0667 844.7696,64.6127 837.6496,55.1767 C836.7686,54.0097 835.8766,52.8207 834.9856,51.6107 Z M239.9746,3.3867 L224.5656,3.3867 C224.5656,25.9117 231.9996,36.1017 239.9746,46.6727 L239.9746,3.3867 Z M224.5656,51.6107 L224.5656,159.7897 L239.9746,159.7897 L239.9746,86.8627 C239.9746,72.0667 234.3506,64.6127 227.2296,55.1767 C226.3506,54.0097 225.4576,52.8207 224.5656,51.6107 Z M677.9876,102.2617 L647.1696,23.9317 L614.3556,102.2617 L677.9876,102.2617 Z M679.9856,107.3987 L612.0726,107.3987 L590.1006,159.7897 L579.5426,159.7897 L649.4536,3.3867 L655.1606,3.3867 L717.9366,159.7897 L700.5306,159.7897 L679.9856,107.3987 Z M456.0106,45.2477 C456.0106,20.5937 443.4546,6.2117 406.0746,6.2117 C399.7966,6.2117 394.9466,6.4677 389.8096,6.9817 L389.8096,83.5137 C394.0896,84.0277 398.6556,84.0277 402.3656,84.0277 C440.8866,84.0277 456.0106,67.8487 456.0106,45.2477 Z M465.1416,159.7897 L416.3476,88.1377 C412.6376,88.3937 408.6426,88.6517 404.6476,88.6517 C399.7966,88.6517 394.9466,88.3937 389.8096,88.1377 L389.8096,159.7897 L374.4006,159.7897 L374.4006,3.6437 C384.6736,2.1027 398.0846,1.5887 406.6456,1.5887 C442.5986,1.5887 473.1306,13.1457 473.1306,44.7347 C473.1306,65.5367 456.2956,79.9187 431.7556,85.5697 L482.8326,159.7897 L465.1416,159.7897 Z M-0.0004,149.2597 L5.7066,141.8127 C17.9766,151.8277 34.8126,156.7077 50.7916,156.7077 C74.7606,156.7077 90.7406,142.8387 90.7406,123.3217 C90.7406,107.1417 78.1856,96.8677 57.6406,87.3657 L39.3776,78.8917 C18.5476,69.1327 5.7066,55.2647 5.7066,38.3147 C5.7066,16.4847 23.9696,0.0477 57.3546,0.0477 C76.4736,0.0477 92.4526,4.6707 101.5836,10.8337 L97.3036,17.7677 C88.4576,10.8337 74.7606,5.9547 57.3546,5.9547 C35.9536,5.9547 18.2626,15.4567 18.2626,33.9487 C18.2626,50.3847 29.3906,57.8327 48.2236,66.8217 L68.1976,76.3237 C92.4526,87.8797 104.1516,99.1797 104.1516,118.9547 C104.1516,144.3807 81.8946,163.1277 48.5096,163.1277 C26.8226,163.1277 11.1286,156.9647 -0.0004,149.2597 Z"
									mask="url(#b)"/>
				</g>
		</g>
</svg>